<mxfile host="app.diagrams.net" modified="2022-05-02T00:02:28.313Z" agent="5.0 (Windows NT 10.0; Win64; x64) AppleWebKit/537.36 (KHTML, like Gecko) Chrome/100.0.4896.127 Safari/537.36" etag="4X8Wvwbs5ClhY5NUVKI4" version="17.4.6" type="github">
  <diagram id="8JdGK-CpmVY6cAT7DH6C" name="Pagina principal">
    <mxGraphModel dx="1203" dy="1835" grid="1" gridSize="10" guides="1" tooltips="1" connect="1" arrows="1" fold="1" page="1" pageScale="1" pageWidth="850" pageHeight="1100" math="0" shadow="0">
      <root>
        <mxCell id="0" />
        <mxCell id="1" parent="0" />
        <mxCell id="_XQH5FA1tdFEgSWd2hvs-1" value="" style="strokeWidth=1;shadow=0;dashed=0;align=center;html=1;shape=mxgraph.mockup.containers.browserWindow;rSize=0;strokeColor=#666666;strokeColor2=#008cff;strokeColor3=#c4c4c4;mainText=,;recursiveResize=0;" vertex="1" parent="1">
          <mxGeometry x="120" y="-40" width="1220" height="630" as="geometry" />
        </mxCell>
        <mxCell id="_XQH5FA1tdFEgSWd2hvs-2" value="Page 1" style="strokeWidth=1;shadow=0;dashed=0;align=center;html=1;shape=mxgraph.mockup.containers.anchor;fontSize=17;fontColor=#666666;align=left;" vertex="1" parent="_XQH5FA1tdFEgSWd2hvs-1">
          <mxGeometry x="60" y="12" width="110" height="26" as="geometry" />
        </mxCell>
        <mxCell id="_XQH5FA1tdFEgSWd2hvs-3" value="https://www.draw.io" style="strokeWidth=1;shadow=0;dashed=0;align=center;html=1;shape=mxgraph.mockup.containers.anchor;rSize=0;fontSize=17;fontColor=#666666;align=left;" vertex="1" parent="_XQH5FA1tdFEgSWd2hvs-1">
          <mxGeometry x="130" y="60" width="250" height="26" as="geometry" />
        </mxCell>
        <mxCell id="_XQH5FA1tdFEgSWd2hvs-5" value="" style="dashed=0;outlineConnect=0;html=1;align=center;labelPosition=center;verticalLabelPosition=bottom;verticalAlign=top;shape=mxgraph.weblogos.ask;fillColor=#D22028;strokeColor=none" vertex="1" parent="_XQH5FA1tdFEgSWd2hvs-1">
          <mxGeometry x="30" y="144.7" width="68.60000000000001" height="50.6" as="geometry" />
        </mxCell>
        <mxCell id="_XQH5FA1tdFEgSWd2hvs-6" value="Sebas" style="verticalLabelPosition=bottom;shadow=0;dashed=0;align=center;html=1;verticalAlign=top;strokeWidth=1;shape=mxgraph.mockup.containers.userMale;strokeColor=#666666;strokeColor2=#008cff;" vertex="1" parent="_XQH5FA1tdFEgSWd2hvs-1">
          <mxGeometry x="1080" y="120" width="100" height="100" as="geometry" />
        </mxCell>
        <mxCell id="_XQH5FA1tdFEgSWd2hvs-7" value="Search" style="strokeWidth=1;shadow=0;dashed=0;align=center;html=1;shape=mxgraph.mockup.forms.searchBox;strokeColor=#999999;mainText=;strokeColor2=#008cff;fontColor=#666666;fontSize=17;align=left;spacingLeft=3;" vertex="1" parent="_XQH5FA1tdFEgSWd2hvs-1">
          <mxGeometry x="880" y="155" width="150" height="30" as="geometry" />
        </mxCell>
        <mxCell id="_XQH5FA1tdFEgSWd2hvs-8" value="" style="strokeWidth=1;shadow=0;dashed=0;align=center;html=1;shape=mxgraph.mockup.forms.rrect;rSize=0;strokeColor=#999999;" vertex="1" parent="_XQH5FA1tdFEgSWd2hvs-1">
          <mxGeometry x="222" y="155" width="358" height="30" as="geometry" />
        </mxCell>
        <mxCell id="_XQH5FA1tdFEgSWd2hvs-9" value="Inicio" style="strokeColor=inherit;fillColor=inherit;gradientColor=inherit;strokeWidth=1;shadow=0;dashed=0;align=center;html=1;shape=mxgraph.mockup.forms.rrect;rSize=0;fontSize=17;fontColor=#666666;" vertex="1" parent="_XQH5FA1tdFEgSWd2hvs-8">
          <mxGeometry width="59.666666666666664" height="30" as="geometry" />
        </mxCell>
        <mxCell id="_XQH5FA1tdFEgSWd2hvs-11" value="Gastos" style="strokeColor=inherit;fillColor=inherit;gradientColor=inherit;strokeWidth=1;shadow=0;dashed=0;align=center;html=1;shape=mxgraph.mockup.forms.rrect;rSize=0;fontSize=17;fontColor=#666666;" vertex="1" parent="_XQH5FA1tdFEgSWd2hvs-8">
          <mxGeometry x="119.33333333333333" width="59.666666666666664" height="30" as="geometry" />
        </mxCell>
        <mxCell id="_XQH5FA1tdFEgSWd2hvs-12" value="" style="strokeColor=inherit;fillColor=inherit;gradientColor=inherit;strokeWidth=1;shadow=0;dashed=0;align=center;html=1;shape=mxgraph.mockup.forms.rrect;rSize=0;fontSize=17;fontColor=#666666;" vertex="1" parent="_XQH5FA1tdFEgSWd2hvs-8">
          <mxGeometry x="179" width="59.666666666666664" height="30" as="geometry" />
        </mxCell>
        <mxCell id="_XQH5FA1tdFEgSWd2hvs-14" value="" style="strokeColor=inherit;fillColor=inherit;gradientColor=inherit;strokeWidth=1;shadow=0;dashed=0;align=center;html=1;shape=mxgraph.mockup.forms.rrect;rSize=0;fontSize=17;fontColor=#666666;" vertex="1" parent="_XQH5FA1tdFEgSWd2hvs-8">
          <mxGeometry x="298.3333333333333" width="59.666666666666664" height="30" as="geometry" />
        </mxCell>
        <mxCell id="_XQH5FA1tdFEgSWd2hvs-15" value="AÃ±adir Gasto" style="strokeWidth=1;shadow=0;dashed=0;align=center;html=1;shape=mxgraph.mockup.buttons.button;strokeColor=#666666;fontColor=#ffffff;mainText=;buttonStyle=round;fontSize=17;fontStyle=1;fillColor=#008cff;whiteSpace=wrap;" vertex="1" parent="_XQH5FA1tdFEgSWd2hvs-1">
          <mxGeometry x="640" y="144.7" width="150" height="50" as="geometry" />
        </mxCell>
        <mxCell id="_XQH5FA1tdFEgSWd2hvs-34" value="&lt;table border=&quot;1&quot; width=&quot;100%&quot; cellpadding=&quot;4&quot; style=&quot;width: 100% ; height: 100% ; border-collapse: collapse&quot;&gt;&lt;tbody&gt;&lt;tr style=&quot;background-color: #a7c942 ; color: #ffffff ; border: 1px solid #98bf21&quot;&gt;&lt;th align=&quot;left&quot;&gt;Expense&lt;/th&gt;&lt;th align=&quot;left&quot;&gt;Valor&lt;/th&gt;&lt;th align=&quot;left&quot;&gt;Pagado&lt;/th&gt;&lt;/tr&gt;&lt;tr style=&quot;border: 1px solid #98bf21&quot;&gt;&lt;td&gt;Colegio Juanis&lt;/td&gt;&lt;td&gt;100.000&lt;/td&gt;&lt;td&gt;100.000&lt;/td&gt;&lt;/tr&gt;&lt;tr style=&quot;background-color: #eaf2d3 ; border: 1px solid #98bf21&quot;&gt;&lt;td&gt;Salud Hermi&lt;/td&gt;&lt;td&gt;30.000&lt;/td&gt;&lt;td&gt;30.000&lt;/td&gt;&lt;/tr&gt;&lt;tr style=&quot;border: 1px solid #98bf21&quot;&gt;&lt;td&gt;Value 7&lt;/td&gt;&lt;td&gt;Value 8&lt;/td&gt;&lt;td&gt;Value 9&lt;/td&gt;&lt;/tr&gt;&lt;tr style=&quot;background-color: #eaf2d3 ; border: 1px solid #98bf21&quot;&gt;&lt;td&gt;Value 10&lt;/td&gt;&lt;td&gt;Value 11&lt;/td&gt;&lt;td&gt;Value 12&lt;/td&gt;&lt;/tr&gt;&lt;/tbody&gt;&lt;/table&gt;" style="text;html=1;strokeColor=#c0c0c0;fillColor=#ffffff;overflow=fill;rounded=0;labelBackgroundColor=#FFFFFF;fontSize=28;fontColor=#000000;" vertex="1" parent="_XQH5FA1tdFEgSWd2hvs-1">
          <mxGeometry x="50" y="320" width="1110" height="300" as="geometry" />
        </mxCell>
      </root>
    </mxGraphModel>
  </diagram>
</mxfile>
